<mxfile host="app.diagrams.net" modified="2021-06-16T17:08:30.919Z" agent="5.0 (Windows NT 10.0; Win64; x64) AppleWebKit/537.36 (KHTML, like Gecko) Chrome/91.0.4472.106 Safari/537.36" etag="2bRhPaDWka3_dKE_JT3T" version="14.7.9" type="github">
  <diagram id="8Th_OcZgvZryvMPXJ2aG" name="Page-1">
    <mxGraphModel dx="1730" dy="818" grid="1" gridSize="10" guides="1" tooltips="1" connect="1" arrows="1" fold="1" page="1" pageScale="1" pageWidth="1169" pageHeight="1654" math="0" shadow="0">
      <root>
        <mxCell id="0" />
        <mxCell id="1" parent="0" />
        <mxCell id="lv4hvCWHQvMcqPJIIDzE-1" value="&lt;font style=&quot;vertical-align: inherit&quot;&gt;&lt;font style=&quot;vertical-align: inherit ; font-size: 18px&quot;&gt;教師基本資料&lt;/font&gt;&lt;/font&gt;" style="rounded=0;whiteSpace=wrap;html=1;" vertex="1" parent="1">
          <mxGeometry x="300" y="180" width="120" height="60" as="geometry" />
        </mxCell>
        <mxCell id="lv4hvCWHQvMcqPJIIDzE-2" value="&lt;font style=&quot;vertical-align: inherit&quot;&gt;&lt;font style=&quot;vertical-align: inherit&quot;&gt;&lt;font style=&quot;vertical-align: inherit&quot;&gt;&lt;font style=&quot;vertical-align: inherit ; font-size: 18px&quot;&gt;學生基本資料&lt;/font&gt;&lt;/font&gt;&lt;/font&gt;&lt;/font&gt;" style="rounded=0;whiteSpace=wrap;html=1;" vertex="1" parent="1">
          <mxGeometry x="720" y="180" width="120" height="60" as="geometry" />
        </mxCell>
        <mxCell id="lv4hvCWHQvMcqPJIIDzE-3" value="&lt;font style=&quot;vertical-align: inherit&quot;&gt;&lt;font style=&quot;vertical-align: inherit&quot;&gt;&lt;font style=&quot;vertical-align: inherit&quot;&gt;&lt;font style=&quot;vertical-align: inherit&quot;&gt;&lt;font style=&quot;vertical-align: inherit&quot;&gt;&lt;font style=&quot;vertical-align: inherit ; font-size: 18px&quot;&gt;租借單資料&lt;/font&gt;&lt;/font&gt;&lt;/font&gt;&lt;/font&gt;&lt;/font&gt;&lt;/font&gt;" style="rounded=0;whiteSpace=wrap;html=1;" vertex="1" parent="1">
          <mxGeometry x="320" y="360" width="120" height="60" as="geometry" />
        </mxCell>
        <mxCell id="lv4hvCWHQvMcqPJIIDzE-4" value="&lt;font style=&quot;vertical-align: inherit&quot;&gt;&lt;font style=&quot;vertical-align: inherit&quot;&gt;&lt;font style=&quot;vertical-align: inherit&quot;&gt;&lt;font style=&quot;vertical-align: inherit&quot;&gt;&lt;font style=&quot;vertical-align: inherit&quot;&gt;&lt;font style=&quot;vertical-align: inherit&quot;&gt;&lt;font style=&quot;vertical-align: inherit&quot;&gt;&lt;font style=&quot;vertical-align: inherit ; font-size: 18px&quot;&gt;歸還單資料&lt;/font&gt;&lt;/font&gt;&lt;/font&gt;&lt;/font&gt;&lt;/font&gt;&lt;/font&gt;&lt;/font&gt;&lt;/font&gt;" style="rounded=0;whiteSpace=wrap;html=1;" vertex="1" parent="1">
          <mxGeometry x="462" y="360" width="120" height="60" as="geometry" />
        </mxCell>
        <mxCell id="lv4hvCWHQvMcqPJIIDzE-5" value="&lt;font style=&quot;vertical-align: inherit&quot;&gt;&lt;font style=&quot;vertical-align: inherit&quot;&gt;&lt;font style=&quot;vertical-align: inherit&quot;&gt;&lt;font style=&quot;vertical-align: inherit&quot;&gt;&lt;font style=&quot;vertical-align: inherit&quot;&gt;&lt;font style=&quot;vertical-align: inherit&quot;&gt;&lt;font style=&quot;vertical-align: inherit&quot;&gt;&lt;font style=&quot;vertical-align: inherit&quot;&gt;&lt;font style=&quot;vertical-align: inherit&quot;&gt;&lt;font style=&quot;vertical-align: inherit ; font-size: 18px&quot;&gt;逾期資料&lt;/font&gt;&lt;/font&gt;&lt;/font&gt;&lt;/font&gt;&lt;/font&gt;&lt;/font&gt;&lt;/font&gt;&lt;/font&gt;&lt;/font&gt;&lt;/font&gt;" style="rounded=0;whiteSpace=wrap;html=1;" vertex="1" parent="1">
          <mxGeometry x="620" y="360" width="120" height="60" as="geometry" />
        </mxCell>
        <mxCell id="lv4hvCWHQvMcqPJIIDzE-6" value="&lt;font style=&quot;vertical-align: inherit&quot;&gt;&lt;font style=&quot;vertical-align: inherit&quot;&gt;&lt;font style=&quot;vertical-align: inherit&quot;&gt;&lt;font style=&quot;vertical-align: inherit&quot;&gt;&lt;font style=&quot;vertical-align: inherit&quot;&gt;&lt;font style=&quot;vertical-align: inherit&quot;&gt;&lt;font style=&quot;vertical-align: inherit&quot;&gt;&lt;font style=&quot;vertical-align: inherit&quot;&gt;&lt;font style=&quot;vertical-align: inherit&quot;&gt;&lt;font style=&quot;vertical-align: inherit ; font-size: 18px&quot;&gt;書籍基本資料&lt;/font&gt;&lt;/font&gt;&lt;/font&gt;&lt;/font&gt;&lt;/font&gt;&lt;/font&gt;&lt;/font&gt;&lt;/font&gt;&lt;/font&gt;&lt;/font&gt;" style="rounded=0;whiteSpace=wrap;html=1;" vertex="1" parent="1">
          <mxGeometry x="770" y="360" width="120" height="60" as="geometry" />
        </mxCell>
        <mxCell id="lv4hvCWHQvMcqPJIIDzE-7" value="&lt;font style=&quot;vertical-align: inherit&quot;&gt;&lt;font style=&quot;vertical-align: inherit ; font-size: 18px&quot;&gt;教師&lt;/font&gt;&lt;/font&gt;" style="rounded=0;whiteSpace=wrap;html=1;" vertex="1" parent="1">
          <mxGeometry x="100" y="380" width="120" height="60" as="geometry" />
        </mxCell>
        <mxCell id="lv4hvCWHQvMcqPJIIDzE-8" value="相關於" style="rhombus;whiteSpace=wrap;html=1;" vertex="1" parent="1">
          <mxGeometry x="180" y="170" width="80" height="80" as="geometry" />
        </mxCell>
        <mxCell id="lv4hvCWHQvMcqPJIIDzE-9" value="&lt;font style=&quot;vertical-align: inherit&quot;&gt;&lt;font style=&quot;vertical-align: inherit&quot;&gt;&lt;font style=&quot;vertical-align: inherit&quot;&gt;&lt;font style=&quot;vertical-align: inherit ; font-size: 18px&quot;&gt;學生&lt;/font&gt;&lt;/font&gt;&lt;/font&gt;&lt;/font&gt;" style="rounded=0;whiteSpace=wrap;html=1;" vertex="1" parent="1">
          <mxGeometry x="970" y="380" width="120" height="60" as="geometry" />
        </mxCell>
        <mxCell id="lv4hvCWHQvMcqPJIIDzE-10" value="相關於" style="rhombus;whiteSpace=wrap;html=1;" vertex="1" parent="1">
          <mxGeometry x="890" y="170" width="80" height="80" as="geometry" />
        </mxCell>
        <mxCell id="lv4hvCWHQvMcqPJIIDzE-11" value="&lt;font style=&quot;vertical-align: inherit&quot;&gt;&lt;font style=&quot;vertical-align: inherit ; font-size: 18px&quot;&gt;人事室&lt;/font&gt;&lt;/font&gt;" style="rounded=0;whiteSpace=wrap;html=1;" vertex="1" parent="1">
          <mxGeometry x="420" y="10" width="120" height="60" as="geometry" />
        </mxCell>
        <mxCell id="lv4hvCWHQvMcqPJIIDzE-12" value="&lt;font style=&quot;vertical-align: inherit&quot;&gt;&lt;font style=&quot;vertical-align: inherit ; font-size: 18px&quot;&gt;教務處&lt;/font&gt;&lt;/font&gt;" style="rounded=0;whiteSpace=wrap;html=1;" vertex="1" parent="1">
          <mxGeometry x="620" y="10" width="120" height="60" as="geometry" />
        </mxCell>
        <mxCell id="lv4hvCWHQvMcqPJIIDzE-13" value="&lt;font style=&quot;vertical-align: inherit&quot;&gt;&lt;font style=&quot;vertical-align: inherit ; font-size: 18px&quot;&gt;圖書館館員&lt;/font&gt;&lt;/font&gt;" style="rounded=0;whiteSpace=wrap;html=1;" vertex="1" parent="1">
          <mxGeometry x="540" y="690" width="120" height="60" as="geometry" />
        </mxCell>
        <mxCell id="lv4hvCWHQvMcqPJIIDzE-14" value="" style="endArrow=none;html=1;exitX=1;exitY=0.5;exitDx=0;exitDy=0;entryX=0.5;entryY=1;entryDx=0;entryDy=0;" edge="1" parent="1" source="lv4hvCWHQvMcqPJIIDzE-7" target="lv4hvCWHQvMcqPJIIDzE-8">
          <mxGeometry width="50" height="50" relative="1" as="geometry">
            <mxPoint x="740" y="390" as="sourcePoint" />
            <mxPoint x="790" y="340" as="targetPoint" />
          </mxGeometry>
        </mxCell>
        <mxCell id="lv4hvCWHQvMcqPJIIDzE-15" value="" style="endArrow=none;html=1;exitX=1;exitY=0.5;exitDx=0;exitDy=0;entryX=0;entryY=0.5;entryDx=0;entryDy=0;" edge="1" parent="1" source="lv4hvCWHQvMcqPJIIDzE-8" target="lv4hvCWHQvMcqPJIIDzE-1">
          <mxGeometry width="50" height="50" relative="1" as="geometry">
            <mxPoint x="160" y="220" as="sourcePoint" />
            <mxPoint x="190" y="220" as="targetPoint" />
          </mxGeometry>
        </mxCell>
        <mxCell id="lv4hvCWHQvMcqPJIIDzE-16" value="" style="endArrow=none;html=1;exitX=0;exitY=0.5;exitDx=0;exitDy=0;entryX=1;entryY=0.5;entryDx=0;entryDy=0;" edge="1" parent="1" source="lv4hvCWHQvMcqPJIIDzE-10" target="lv4hvCWHQvMcqPJIIDzE-2">
          <mxGeometry width="50" height="50" relative="1" as="geometry">
            <mxPoint x="160" y="220" as="sourcePoint" />
            <mxPoint x="190" y="220" as="targetPoint" />
          </mxGeometry>
        </mxCell>
        <mxCell id="lv4hvCWHQvMcqPJIIDzE-17" value="" style="endArrow=none;html=1;exitX=0;exitY=0.5;exitDx=0;exitDy=0;entryX=1;entryY=0.5;entryDx=0;entryDy=0;" edge="1" parent="1" source="lv4hvCWHQvMcqPJIIDzE-9" target="lv4hvCWHQvMcqPJIIDzE-10">
          <mxGeometry width="50" height="50" relative="1" as="geometry">
            <mxPoint x="900" y="220" as="sourcePoint" />
            <mxPoint x="850" y="220" as="targetPoint" />
          </mxGeometry>
        </mxCell>
        <mxCell id="lv4hvCWHQvMcqPJIIDzE-21" value="更改" style="rhombus;whiteSpace=wrap;html=1;" vertex="1" parent="1">
          <mxGeometry x="440" y="90" width="80" height="80" as="geometry" />
        </mxCell>
        <mxCell id="lv4hvCWHQvMcqPJIIDzE-22" value="更改" style="rhombus;whiteSpace=wrap;html=1;" vertex="1" parent="1">
          <mxGeometry x="640" y="90" width="80" height="80" as="geometry" />
        </mxCell>
        <mxCell id="lv4hvCWHQvMcqPJIIDzE-24" value="" style="endArrow=none;html=1;exitX=0.5;exitY=0;exitDx=0;exitDy=0;entryX=0.5;entryY=1;entryDx=0;entryDy=0;" edge="1" parent="1" source="lv4hvCWHQvMcqPJIIDzE-21" target="lv4hvCWHQvMcqPJIIDzE-11">
          <mxGeometry width="50" height="50" relative="1" as="geometry">
            <mxPoint x="270" y="220" as="sourcePoint" />
            <mxPoint x="310" y="220" as="targetPoint" />
          </mxGeometry>
        </mxCell>
        <mxCell id="lv4hvCWHQvMcqPJIIDzE-25" value="" style="endArrow=none;html=1;exitX=1;exitY=0.5;exitDx=0;exitDy=0;entryX=0.5;entryY=1;entryDx=0;entryDy=0;" edge="1" parent="1" source="lv4hvCWHQvMcqPJIIDzE-1" target="lv4hvCWHQvMcqPJIIDzE-21">
          <mxGeometry width="50" height="50" relative="1" as="geometry">
            <mxPoint x="280" y="230" as="sourcePoint" />
            <mxPoint x="320" y="230" as="targetPoint" />
            <Array as="points">
              <mxPoint x="480" y="210" />
            </Array>
          </mxGeometry>
        </mxCell>
        <mxCell id="lv4hvCWHQvMcqPJIIDzE-26" value="" style="endArrow=none;html=1;exitX=0;exitY=0.5;exitDx=0;exitDy=0;entryX=0.5;entryY=1;entryDx=0;entryDy=0;" edge="1" parent="1" source="lv4hvCWHQvMcqPJIIDzE-2" target="lv4hvCWHQvMcqPJIIDzE-22">
          <mxGeometry width="50" height="50" relative="1" as="geometry">
            <mxPoint x="430" y="220" as="sourcePoint" />
            <mxPoint x="490" y="180" as="targetPoint" />
            <Array as="points">
              <mxPoint x="680" y="210" />
            </Array>
          </mxGeometry>
        </mxCell>
        <mxCell id="lv4hvCWHQvMcqPJIIDzE-27" value="" style="endArrow=none;html=1;exitX=0.5;exitY=0;exitDx=0;exitDy=0;entryX=0.5;entryY=1;entryDx=0;entryDy=0;" edge="1" parent="1" source="lv4hvCWHQvMcqPJIIDzE-22" target="lv4hvCWHQvMcqPJIIDzE-12">
          <mxGeometry width="50" height="50" relative="1" as="geometry">
            <mxPoint x="490" y="100" as="sourcePoint" />
            <mxPoint x="490" y="80" as="targetPoint" />
          </mxGeometry>
        </mxCell>
        <mxCell id="lv4hvCWHQvMcqPJIIDzE-30" value="查閱書籍" style="rhombus;whiteSpace=wrap;html=1;" vertex="1" parent="1">
          <mxGeometry x="170" y="490" width="80" height="80" as="geometry" />
        </mxCell>
        <mxCell id="lv4hvCWHQvMcqPJIIDzE-31" value="歸還書籍" style="rhombus;whiteSpace=wrap;html=1;" vertex="1" parent="1">
          <mxGeometry x="929" y="500" width="80" height="80" as="geometry" />
        </mxCell>
        <mxCell id="lv4hvCWHQvMcqPJIIDzE-38" value="登錄處理" style="rhombus;whiteSpace=wrap;html=1;" vertex="1" parent="1">
          <mxGeometry x="10" y="490" width="80" height="80" as="geometry" />
        </mxCell>
        <mxCell id="lv4hvCWHQvMcqPJIIDzE-39" value="歸還書籍" style="rhombus;whiteSpace=wrap;html=1;" vertex="1" parent="1">
          <mxGeometry x="90" y="490" width="80" height="80" as="geometry" />
        </mxCell>
        <mxCell id="lv4hvCWHQvMcqPJIIDzE-36" value="續借" style="rhombus;whiteSpace=wrap;html=1;" vertex="1" parent="1">
          <mxGeometry x="250" y="490" width="80" height="80" as="geometry" />
        </mxCell>
        <mxCell id="lv4hvCWHQvMcqPJIIDzE-41" value="查閱書籍" style="rhombus;whiteSpace=wrap;html=1;" vertex="1" parent="1">
          <mxGeometry x="1009" y="500" width="80" height="80" as="geometry" />
        </mxCell>
        <mxCell id="lv4hvCWHQvMcqPJIIDzE-42" value="續借" style="rhombus;whiteSpace=wrap;html=1;" vertex="1" parent="1">
          <mxGeometry x="1089" y="500" width="80" height="80" as="geometry" />
        </mxCell>
        <mxCell id="lv4hvCWHQvMcqPJIIDzE-44" value="登錄處理" style="rhombus;whiteSpace=wrap;html=1;" vertex="1" parent="1">
          <mxGeometry x="849" y="500" width="80" height="80" as="geometry" />
        </mxCell>
        <mxCell id="lv4hvCWHQvMcqPJIIDzE-45" value="" style="endArrow=none;html=1;entryX=0.5;entryY=1;entryDx=0;entryDy=0;exitX=0.5;exitY=0;exitDx=0;exitDy=0;" edge="1" parent="1" source="lv4hvCWHQvMcqPJIIDzE-38" target="lv4hvCWHQvMcqPJIIDzE-7">
          <mxGeometry width="50" height="50" relative="1" as="geometry">
            <mxPoint x="570" y="520" as="sourcePoint" />
            <mxPoint x="620" y="470" as="targetPoint" />
          </mxGeometry>
        </mxCell>
        <mxCell id="lv4hvCWHQvMcqPJIIDzE-46" value="" style="endArrow=none;html=1;exitX=0.5;exitY=0;exitDx=0;exitDy=0;" edge="1" parent="1" source="lv4hvCWHQvMcqPJIIDzE-39">
          <mxGeometry width="50" height="50" relative="1" as="geometry">
            <mxPoint x="60" y="500" as="sourcePoint" />
            <mxPoint x="160" y="440" as="targetPoint" />
          </mxGeometry>
        </mxCell>
        <mxCell id="lv4hvCWHQvMcqPJIIDzE-47" value="" style="endArrow=none;html=1;entryX=0.5;entryY=1;entryDx=0;entryDy=0;exitX=0.5;exitY=0;exitDx=0;exitDy=0;" edge="1" parent="1" source="lv4hvCWHQvMcqPJIIDzE-30" target="lv4hvCWHQvMcqPJIIDzE-7">
          <mxGeometry width="50" height="50" relative="1" as="geometry">
            <mxPoint x="70" y="510" as="sourcePoint" />
            <mxPoint x="180" y="460" as="targetPoint" />
          </mxGeometry>
        </mxCell>
        <mxCell id="lv4hvCWHQvMcqPJIIDzE-48" value="" style="endArrow=none;html=1;exitX=0.5;exitY=0;exitDx=0;exitDy=0;exitPerimeter=0;" edge="1" parent="1" source="lv4hvCWHQvMcqPJIIDzE-36">
          <mxGeometry width="50" height="50" relative="1" as="geometry">
            <mxPoint x="80" y="520" as="sourcePoint" />
            <mxPoint x="160" y="440" as="targetPoint" />
          </mxGeometry>
        </mxCell>
        <mxCell id="lv4hvCWHQvMcqPJIIDzE-49" value="" style="endArrow=none;html=1;entryX=0.5;entryY=1;entryDx=0;entryDy=0;" edge="1" parent="1" target="lv4hvCWHQvMcqPJIIDzE-9">
          <mxGeometry width="50" height="50" relative="1" as="geometry">
            <mxPoint x="890" y="500" as="sourcePoint" />
            <mxPoint x="830" y="500" as="targetPoint" />
          </mxGeometry>
        </mxCell>
        <mxCell id="lv4hvCWHQvMcqPJIIDzE-50" value="" style="endArrow=none;html=1;exitX=0.5;exitY=0;exitDx=0;exitDy=0;" edge="1" parent="1" source="lv4hvCWHQvMcqPJIIDzE-31">
          <mxGeometry width="50" height="50" relative="1" as="geometry">
            <mxPoint x="900" y="510" as="sourcePoint" />
            <mxPoint x="1030" y="440" as="targetPoint" />
          </mxGeometry>
        </mxCell>
        <mxCell id="lv4hvCWHQvMcqPJIIDzE-51" value="" style="endArrow=none;html=1;exitX=0.5;exitY=0;exitDx=0;exitDy=0;" edge="1" parent="1" source="lv4hvCWHQvMcqPJIIDzE-41">
          <mxGeometry width="50" height="50" relative="1" as="geometry">
            <mxPoint x="1050" y="490" as="sourcePoint" />
            <mxPoint x="1030" y="440" as="targetPoint" />
          </mxGeometry>
        </mxCell>
        <mxCell id="lv4hvCWHQvMcqPJIIDzE-52" value="" style="endArrow=none;html=1;entryX=0.5;entryY=1;entryDx=0;entryDy=0;" edge="1" parent="1" target="lv4hvCWHQvMcqPJIIDzE-9">
          <mxGeometry width="50" height="50" relative="1" as="geometry">
            <mxPoint x="1130" y="500" as="sourcePoint" />
            <mxPoint x="1060" y="470" as="targetPoint" />
          </mxGeometry>
        </mxCell>
        <mxCell id="lv4hvCWHQvMcqPJIIDzE-54" value="" style="endArrow=none;html=1;exitX=0.5;exitY=1;exitDx=0;exitDy=0;entryX=0;entryY=1;entryDx=0;entryDy=0;" edge="1" parent="1" source="lv4hvCWHQvMcqPJIIDzE-38" target="lv4hvCWHQvMcqPJIIDzE-13">
          <mxGeometry width="50" height="50" relative="1" as="geometry">
            <mxPoint x="540" y="540" as="sourcePoint" />
            <mxPoint x="590" y="490" as="targetPoint" />
          </mxGeometry>
        </mxCell>
        <mxCell id="lv4hvCWHQvMcqPJIIDzE-55" value="" style="endArrow=none;html=1;exitX=0.5;exitY=1;exitDx=0;exitDy=0;entryX=0;entryY=0.75;entryDx=0;entryDy=0;" edge="1" parent="1" source="lv4hvCWHQvMcqPJIIDzE-39" target="lv4hvCWHQvMcqPJIIDzE-13">
          <mxGeometry width="50" height="50" relative="1" as="geometry">
            <mxPoint x="60" y="580.0000000000002" as="sourcePoint" />
            <mxPoint x="550" y="769.9999999999998" as="targetPoint" />
          </mxGeometry>
        </mxCell>
        <mxCell id="lv4hvCWHQvMcqPJIIDzE-56" value="" style="endArrow=none;html=1;exitX=0.5;exitY=1;exitDx=0;exitDy=0;entryX=0;entryY=0.5;entryDx=0;entryDy=0;" edge="1" parent="1" source="lv4hvCWHQvMcqPJIIDzE-30" target="lv4hvCWHQvMcqPJIIDzE-13">
          <mxGeometry width="50" height="50" relative="1" as="geometry">
            <mxPoint x="70" y="590.0000000000002" as="sourcePoint" />
            <mxPoint x="560" y="779.9999999999998" as="targetPoint" />
          </mxGeometry>
        </mxCell>
        <mxCell id="lv4hvCWHQvMcqPJIIDzE-57" value="" style="endArrow=none;html=1;exitX=0.5;exitY=1;exitDx=0;exitDy=0;entryX=0;entryY=0;entryDx=0;entryDy=0;" edge="1" parent="1" source="lv4hvCWHQvMcqPJIIDzE-36" target="lv4hvCWHQvMcqPJIIDzE-13">
          <mxGeometry width="50" height="50" relative="1" as="geometry">
            <mxPoint x="80" y="600.0000000000002" as="sourcePoint" />
            <mxPoint x="570" y="789.9999999999998" as="targetPoint" />
          </mxGeometry>
        </mxCell>
        <mxCell id="lv4hvCWHQvMcqPJIIDzE-58" value="" style="endArrow=none;html=1;entryX=0.5;entryY=1;entryDx=0;entryDy=0;exitX=1;exitY=0;exitDx=0;exitDy=0;" edge="1" parent="1" source="lv4hvCWHQvMcqPJIIDzE-13" target="lv4hvCWHQvMcqPJIIDzE-44">
          <mxGeometry width="50" height="50" relative="1" as="geometry">
            <mxPoint x="540" y="540" as="sourcePoint" />
            <mxPoint x="590" y="490" as="targetPoint" />
          </mxGeometry>
        </mxCell>
        <mxCell id="lv4hvCWHQvMcqPJIIDzE-59" value="" style="endArrow=none;html=1;entryX=0.5;entryY=1;entryDx=0;entryDy=0;exitX=1;exitY=0.25;exitDx=0;exitDy=0;" edge="1" parent="1" source="lv4hvCWHQvMcqPJIIDzE-13" target="lv4hvCWHQvMcqPJIIDzE-31">
          <mxGeometry width="50" height="50" relative="1" as="geometry">
            <mxPoint x="670" y="699.9999999999998" as="sourcePoint" />
            <mxPoint x="899" y="590.0000000000002" as="targetPoint" />
          </mxGeometry>
        </mxCell>
        <mxCell id="lv4hvCWHQvMcqPJIIDzE-60" value="" style="endArrow=none;html=1;entryX=0.5;entryY=1;entryDx=0;entryDy=0;exitX=1;exitY=0.5;exitDx=0;exitDy=0;" edge="1" parent="1" source="lv4hvCWHQvMcqPJIIDzE-13" target="lv4hvCWHQvMcqPJIIDzE-41">
          <mxGeometry width="50" height="50" relative="1" as="geometry">
            <mxPoint x="680" y="709.9999999999998" as="sourcePoint" />
            <mxPoint x="909" y="600.0000000000002" as="targetPoint" />
          </mxGeometry>
        </mxCell>
        <mxCell id="lv4hvCWHQvMcqPJIIDzE-61" value="" style="endArrow=none;html=1;entryX=0.5;entryY=1;entryDx=0;entryDy=0;exitX=1;exitY=0.75;exitDx=0;exitDy=0;" edge="1" parent="1" source="lv4hvCWHQvMcqPJIIDzE-13" target="lv4hvCWHQvMcqPJIIDzE-42">
          <mxGeometry width="50" height="50" relative="1" as="geometry">
            <mxPoint x="690" y="719.9999999999998" as="sourcePoint" />
            <mxPoint x="919" y="610.0000000000002" as="targetPoint" />
          </mxGeometry>
        </mxCell>
        <mxCell id="lv4hvCWHQvMcqPJIIDzE-62" value="查詢" style="rhombus;whiteSpace=wrap;html=1;" vertex="1" parent="1">
          <mxGeometry x="730" y="510" width="80" height="80" as="geometry" />
        </mxCell>
        <mxCell id="lv4hvCWHQvMcqPJIIDzE-63" value="記錄" style="rhombus;whiteSpace=wrap;html=1;" vertex="1" parent="1">
          <mxGeometry x="382" y="500" width="80" height="80" as="geometry" />
        </mxCell>
        <mxCell id="lv4hvCWHQvMcqPJIIDzE-64" value="計算" style="rhombus;whiteSpace=wrap;html=1;" vertex="1" parent="1">
          <mxGeometry x="620" y="510" width="80" height="80" as="geometry" />
        </mxCell>
        <mxCell id="lv4hvCWHQvMcqPJIIDzE-65" value="列印" style="rhombus;whiteSpace=wrap;html=1;" vertex="1" parent="1">
          <mxGeometry x="482" y="510" width="80" height="80" as="geometry" />
        </mxCell>
        <mxCell id="lv4hvCWHQvMcqPJIIDzE-66" value="" style="endArrow=none;html=1;exitX=1;exitY=0.75;exitDx=0;exitDy=0;entryX=0.62;entryY=0.889;entryDx=0;entryDy=0;entryPerimeter=0;" edge="1" parent="1" source="lv4hvCWHQvMcqPJIIDzE-1" target="lv4hvCWHQvMcqPJIIDzE-21">
          <mxGeometry width="50" height="50" relative="1" as="geometry">
            <mxPoint x="430" y="220" as="sourcePoint" />
            <mxPoint x="490" y="180" as="targetPoint" />
            <Array as="points">
              <mxPoint x="490" y="225" />
            </Array>
          </mxGeometry>
        </mxCell>
        <mxCell id="lv4hvCWHQvMcqPJIIDzE-67" value="" style="endArrow=none;html=1;entryX=0.353;entryY=0.849;entryDx=0;entryDy=0;entryPerimeter=0;" edge="1" parent="1" target="lv4hvCWHQvMcqPJIIDzE-22">
          <mxGeometry width="50" height="50" relative="1" as="geometry">
            <mxPoint x="720" y="220" as="sourcePoint" />
            <mxPoint x="690" y="180" as="targetPoint" />
            <Array as="points">
              <mxPoint x="690" y="220" />
              <mxPoint x="670" y="220" />
            </Array>
          </mxGeometry>
        </mxCell>
        <mxCell id="lv4hvCWHQvMcqPJIIDzE-68" value="" style="endArrow=none;html=1;exitX=0.5;exitY=0;exitDx=0;exitDy=0;entryX=0.5;entryY=1;entryDx=0;entryDy=0;" edge="1" parent="1" source="lv4hvCWHQvMcqPJIIDzE-13" target="lv4hvCWHQvMcqPJIIDzE-65">
          <mxGeometry width="50" height="50" relative="1" as="geometry">
            <mxPoint x="540" y="430" as="sourcePoint" />
            <mxPoint x="590" y="380" as="targetPoint" />
          </mxGeometry>
        </mxCell>
        <mxCell id="lv4hvCWHQvMcqPJIIDzE-69" value="" style="endArrow=none;html=1;entryX=0.5;entryY=1;entryDx=0;entryDy=0;" edge="1" parent="1" target="lv4hvCWHQvMcqPJIIDzE-62">
          <mxGeometry width="50" height="50" relative="1" as="geometry">
            <mxPoint x="600" y="690" as="sourcePoint" />
            <mxPoint x="472" y="650" as="targetPoint" />
          </mxGeometry>
        </mxCell>
        <mxCell id="lv4hvCWHQvMcqPJIIDzE-70" value="" style="endArrow=none;html=1;exitX=0.5;exitY=0;exitDx=0;exitDy=0;entryX=0.5;entryY=1;entryDx=0;entryDy=0;" edge="1" parent="1" source="lv4hvCWHQvMcqPJIIDzE-13" target="lv4hvCWHQvMcqPJIIDzE-63">
          <mxGeometry width="50" height="50" relative="1" as="geometry">
            <mxPoint x="620" y="710" as="sourcePoint" />
            <mxPoint x="482" y="660" as="targetPoint" />
          </mxGeometry>
        </mxCell>
        <mxCell id="lv4hvCWHQvMcqPJIIDzE-71" value="" style="endArrow=none;html=1;entryX=0.5;entryY=1;entryDx=0;entryDy=0;" edge="1" parent="1" target="lv4hvCWHQvMcqPJIIDzE-64">
          <mxGeometry width="50" height="50" relative="1" as="geometry">
            <mxPoint x="600" y="690" as="sourcePoint" />
            <mxPoint x="492" y="670" as="targetPoint" />
          </mxGeometry>
        </mxCell>
        <mxCell id="lv4hvCWHQvMcqPJIIDzE-72" value="" style="endArrow=none;html=1;" edge="1" parent="1" source="lv4hvCWHQvMcqPJIIDzE-63" target="lv4hvCWHQvMcqPJIIDzE-3">
          <mxGeometry width="50" height="50" relative="1" as="geometry">
            <mxPoint x="570" y="510" as="sourcePoint" />
            <mxPoint x="620" y="460" as="targetPoint" />
          </mxGeometry>
        </mxCell>
        <mxCell id="lv4hvCWHQvMcqPJIIDzE-73" value="" style="endArrow=none;html=1;" edge="1" parent="1" source="lv4hvCWHQvMcqPJIIDzE-63">
          <mxGeometry width="50" height="50" relative="1" as="geometry">
            <mxPoint x="568" y="510" as="sourcePoint" />
            <mxPoint x="410" y="420" as="targetPoint" />
          </mxGeometry>
        </mxCell>
        <mxCell id="lv4hvCWHQvMcqPJIIDzE-74" value="" style="endArrow=none;html=1;" edge="1" parent="1" source="lv4hvCWHQvMcqPJIIDzE-65">
          <mxGeometry width="50" height="50" relative="1" as="geometry">
            <mxPoint x="428.3636363636365" y="513.6363636363636" as="sourcePoint" />
            <mxPoint x="500" y="420" as="targetPoint" />
          </mxGeometry>
        </mxCell>
        <mxCell id="lv4hvCWHQvMcqPJIIDzE-75" value="" style="endArrow=none;html=1;exitX=0.679;exitY=0.163;exitDx=0;exitDy=0;exitPerimeter=0;" edge="1" parent="1" source="lv4hvCWHQvMcqPJIIDzE-65">
          <mxGeometry width="50" height="50" relative="1" as="geometry">
            <mxPoint x="438.3636363636365" y="523.6363636363636" as="sourcePoint" />
            <mxPoint x="530" y="420" as="targetPoint" />
          </mxGeometry>
        </mxCell>
        <mxCell id="lv4hvCWHQvMcqPJIIDzE-76" value="" style="endArrow=none;html=1;exitX=0.354;exitY=0.179;exitDx=0;exitDy=0;exitPerimeter=0;" edge="1" parent="1" source="lv4hvCWHQvMcqPJIIDzE-64">
          <mxGeometry width="50" height="50" relative="1" as="geometry">
            <mxPoint x="448.3636363636365" y="533.6363636363636" as="sourcePoint" />
            <mxPoint x="660" y="420" as="targetPoint" />
          </mxGeometry>
        </mxCell>
        <mxCell id="lv4hvCWHQvMcqPJIIDzE-77" value="" style="endArrow=none;html=1;exitX=0.696;exitY=0.163;exitDx=0;exitDy=0;exitPerimeter=0;" edge="1" parent="1" source="lv4hvCWHQvMcqPJIIDzE-64">
          <mxGeometry width="50" height="50" relative="1" as="geometry">
            <mxPoint x="458.3636363636365" y="543.6363636363636" as="sourcePoint" />
            <mxPoint x="680" y="420" as="targetPoint" />
          </mxGeometry>
        </mxCell>
        <mxCell id="lv4hvCWHQvMcqPJIIDzE-79" value="" style="endArrow=none;html=1;" edge="1" parent="1" source="lv4hvCWHQvMcqPJIIDzE-62">
          <mxGeometry width="50" height="50" relative="1" as="geometry">
            <mxPoint x="468.3636363636365" y="553.6363636363636" as="sourcePoint" />
            <mxPoint x="800" y="420" as="targetPoint" />
          </mxGeometry>
        </mxCell>
        <mxCell id="lv4hvCWHQvMcqPJIIDzE-80" value="" style="endArrow=none;html=1;exitX=1;exitY=0;exitDx=0;exitDy=0;entryX=0.458;entryY=1.017;entryDx=0;entryDy=0;entryPerimeter=0;" edge="1" parent="1" source="lv4hvCWHQvMcqPJIIDzE-62" target="lv4hvCWHQvMcqPJIIDzE-6">
          <mxGeometry width="50" height="50" relative="1" as="geometry">
            <mxPoint x="478.3636363636365" y="563.6363636363636" as="sourcePoint" />
            <mxPoint x="470" y="480.0000000000001" as="targetPoint" />
          </mxGeometry>
        </mxCell>
      </root>
    </mxGraphModel>
  </diagram>
</mxfile>
